<?xml version="1.0" standalone="no"?>
<!DOCTYPE svg PUBLIC "-//W3C//DTD SVG 20010904//EN"
 "http://www.w3.org/TR/2001/REC-SVG-20010904/DTD/svg10.dtd">
<svg version="1.0" xmlns="http://www.w3.org/2000/svg"
 width="180.000000pt" height="180.000000pt" viewBox="0 0 180.000000 180.000000"
 preserveAspectRatio="xMidYMid meet">
<metadata>
Created by potrace 1.16, written by Peter Selinger 2001-2019
</metadata>
<g transform="translate(0.000000,180.000000) scale(0.100000,-0.100000)"
fill="#000000" stroke="none">
<path d="M0 900 l0 -350 900 0 900 0 0 350 0 350 -900 0 -900 0 0 -350z m590
142 c38 -38 47 -91 26 -144 -12 -31 -13 -45 -4 -55 20 -24 15 -119 -8 -150
-29 -38 -62 -44 -236 -41 l-153 3 -3 195 c-1 107 0 200 2 207 4 10 47 13 176
13 l172 0 28 -28z m415 9 c140 -65 167 -247 52 -348 -49 -43 -91 -53 -223 -53
-94 0 -113 3 -118 16 -4 9 -2 22 2 28 5 6 32 40 61 75 37 48 51 74 51 97 0 41
26 72 67 80 27 5 37 1 63 -24 18 -18 30 -41 30 -57 0 -38 -41 -75 -84 -75 -28
0 -40 -7 -66 -40 l-32 -40 77 0 c46 0 87 6 103 14 96 50 114 168 38 245 l-36
36 -110 3 -110 4 0 -85 c0 -69 -3 -86 -16 -91 -34 -13 -44 12 -44 109 0 52 3
100 6 109 10 25 234 23 289 -3z m556 4 c34 -18 49 -50 49 -105 0 -21 -4 -50
-10 -64 -11 -29 -57 -56 -96 -56 -26 0 -24 -4 39 -66 67 -65 81 -96 51 -108
-23 -9 -41 4 -129 93 l-80 81 -62 0 -63 0 0 -78 c0 -47 -5 -83 -12 -90 -17
-17 -45 -15 -52 4 -3 9 -6 96 -6 194 0 98 3 185 6 194 9 23 320 24 365 1z"/>
<path d="M277 1003 c-4 -3 -7 -30 -7 -60 l0 -53 123 0 c143 0 167 9 167 66 0
28 -5 36 -26 44 -28 11 -247 14 -257 3z"/>
<path d="M270 775 l0 -55 133 0 c145 0 157 4 157 53 0 49 -21 56 -162 57
l-128 0 0 -55z"/>
<path d="M1260 950 l0 -60 125 0 c112 0 127 2 145 20 11 11 20 29 20 40 0 11
-9 29 -20 40 -18 18 -33 20 -145 20 l-125 0 0 -60z"/>
</g>
</svg>
